<?xml version="1.0" encoding="utf-8"?>
<!-- Generator: Adobe Illustrator 16.0.0, SVG Export Plug-In . SVG Version: 6.00 Build 0)  -->
<!DOCTYPE svg PUBLIC "-//W3C//DTD SVG 1.1//EN" "http://www.w3.org/Graphics/SVG/1.1/DTD/svg11.dtd">
<svg version="1.1" id="Capa_1" xmlns="http://www.w3.org/2000/svg" xmlns:xlink="http://www.w3.org/1999/xlink" x="0px" y="0px"
	 width="136px" height="140px" viewBox="0 0 136 140" enable-background="new 0 0 136 140" xml:space="preserve">
<g>
	<g>
		<g>
			<path fill="#99CC33" d="M39.85,54.501c7.254-13.417,9.178-28.13,6.48-41.229C33.391,18.374,22.106,27.87,14.979,41.058
				C7.844,54.255,6.077,68.9,8.909,82.512C21.341,77.6,32.591,67.928,39.85,54.501"/>
		</g>
		<g>
			<path fill="#99CC33" d="M90.356,81.801c8.369-15.469,21.472-26.548,35.982-32.058c-4.864-13.789-14.676-25.883-28.551-33.377
				c-13.879-7.509-29.371-9.078-43.58-5.606c3.347,15.16,1.263,32.195-7.098,47.669c-8.369,15.476-21.475,26.546-35.989,32.063
				c4.868,13.791,14.683,25.88,28.556,33.377c13.877,7.506,29.373,9.075,43.58,5.604C79.907,114.313,81.995,97.281,90.356,81.801"/>
		</g>
		<g>
			<path fill="#99CC33" d="M97.621,85.731c7.257-13.414,18.507-23.092,30.943-28.009c2.83,13.617,1.061,28.268-6.067,41.454
				c-7.131,13.186-18.416,22.695-31.356,27.786C88.441,113.867,90.364,99.152,97.621,85.731"/>
		</g>
	</g>
</g>
</svg>
