<?xml version="1.0" encoding="utf-8"?>
<!-- Generator: Adobe Illustrator 16.0.0, SVG Export Plug-In . SVG Version: 6.00 Build 0)  -->
<!DOCTYPE svg PUBLIC "-//W3C//DTD SVG 1.1//EN" "http://www.w3.org/Graphics/SVG/1.1/DTD/svg11.dtd">
<svg version="1.1" id="Capa_1" xmlns="http://www.w3.org/2000/svg" xmlns:xlink="http://www.w3.org/1999/xlink" x="0px" y="0px"
	 width="136px" height="140px" viewBox="0 0 136 140" enable-background="new 0 0 136 140" xml:space="preserve">
<g>
	<g>
		<g>
			<path fill="#C7AE36" d="M35.918,71.259c-0.53-15.243-6.313-28.908-15.266-38.843C12.071,43.363,7.14,57.263,7.664,72.245
				c0.521,14.993,6.405,28.52,15.734,38.83C31.637,100.548,36.449,86.514,35.918,71.259"/>
		</g>
		<g>
			<path fill="#C7AE36" d="M93.295,69.26c-0.606-17.578,5.092-33.762,14.822-45.855C96.946,13.97,82.365,8.501,66.605,9.055
				c-15.771,0.543-29.928,7.027-40.429,17.21c10.556,11.384,17.375,27.133,17.991,44.71c0.609,17.583-5.096,33.762-14.826,45.863
				c11.176,9.434,25.757,14.897,41.517,14.346c15.768-0.545,29.929-7.03,40.428-17.211C100.728,102.591,93.913,86.842,93.295,69.26"
				/>
		</g>
		<g>
			<path fill="#C7AE36" d="M101.55,68.975c-0.526-15.242,4.283-29.281,12.523-39.813c9.33,10.314,15.214,23.847,15.736,38.828
				c0.519,14.981-4.405,28.893-12.993,39.831C107.864,97.889,102.079,84.223,101.55,68.975"/>
		</g>
	</g>
</g>
</svg>
