<svg id="Layer_1" data-name="Layer 1" xmlns="http://www.w3.org/2000/svg" xmlns:xlink="http://www.w3.org/1999/xlink" viewBox="0 0 512 290.31"><defs><style>.cls-1,.cls-2{fill:#143857;}.cls-2,.cls-4{font-size:119.14px;font-family:ArialRoundedMTBold, Arial Rounded MT Bold;}.cls-3{clip-path:url(#clip-path);}.cls-4{fill:#fff;}.cls-5{fill:#88b137;}</style><clipPath id="clip-path" transform="translate(-39 -258.49)"><path id="_Compound_Clipping_Path_" data-name="&lt;Compound Clipping Path&gt;" class="cls-1" d="M186.44,350.91c.3,0-9.62.67-12.49,2.69-2.67.92-2.64,1-3.25-1.54-1.12-4.72-1.5-7.17-.25-11.94,1.17-4.49,1.88-9.08,3.87-13.39,1.28-2.77,3.47-4.47,5.67-6a4.4,4.4,0,0,0,2.13-4.41c-.15-3.77-.56-7.55-.46-11.32a158,158,0,0,1,1.08-16,17.25,17.25,0,0,1,6.19-10.88c11.7-10.1,21.9-11.31,34.6-4.78,5.43,2.78,10.76,5.75,16.27,8.36,2.23,1.07,4.8,1.42,7.64,2.22.1-2.36.19-4.24.28-6.46a28.72,28.72,0,0,1,4.6-1.75,2.93,2.93,0,0,1,2.56,1c1,1.93,2.41,1.76,4,1.22,3.3-1.15,6.57-2.38,9.86-3.56,8.8-3.16,17.77-5.61,27.17-6.17a4,4,0,0,0,1-.31H308c3.53.38,7.05,1,10.59,1.1,12.63.47,23.68,5.47,34.25,11.78a316.43,316.43,0,0,1,64.77,51.52q6.16,6.36,12.24,12.81c.43.47.4-1,.62-.28.28.87.35,2,.93,2.55,9.54,9.18,13.53,20.87,15.4,33.57,1.29,8.81-.86,16.88-5.12,24.51-3.61,6.47-9,9.79-12.49,16.34-.64-2-1-1.84-1-1.84-1,4-20.57,11.72-25.7,22.43-.71,1.48-1.54,2.89-2.62,4.89a29.58,29.58,0,0,0,5.45-1,76.26,76.26,0,0,0,10.09-4.55,48.56,48.56,0,0,1,20.1-6.14c9.36-.81,18.78-.83,28.15-1.51a73.79,73.79,0,0,0,14-2.2c8.19-2.22,16.24-5,24.34-7.52.5-.16,1-.38,1.48-.57-1-2.4-.07-4.33,2.49-4.74a61.45,61.45,0,0,1,21.3.06c3,.58,5.22,2.27,5.51,5.33.54,5.58.91,11.2.93,16.8,0,8-.65,15.94-.43,23.9.23,8.52-3.31,14.82-10,19.61-5.47,3.92-11.29,7.08-18.33,6.9-2.85-.07-5.38-.9-6.44-3.84s.14-5.62,2.34-7.58c1.32-1.18,3.2-1.75,4.82-2.6a6.8,6.8,0,0,0,2.05-1.2c1.16-1.33.89-2.09-.8-2.58a3.92,3.92,0,0,1-3-3,14.33,14.33,0,0,0-1.26-3c-.9-1.74-1.88-3.45-2.8-5.14-1.28,2.11.22,4.06.81,6.1l-.5.26q-1.59-2.57-3.19-5.13c-.18.19-.48.81-.81.83a5.51,5.51,0,0,1-2.66-.35c-.32-.16-.44-1.45-.16-2,.88-1.59,2-3.05,3.13-4.74a3.94,3.94,0,0,0-1.32,0c-1.63.71-2.74.51-3.74-1.22-.4-.68-1.9-1.09-2.86-1-5.34.27-10.77.21-15.82,2.24-8,3.18-15.81,6.58-23.74,9.82-6.33,2.6-12.68,5.17-19.1,7.57-1.2.45-2.73.06-3.82.39-1.06.69-2,1.82-3.17,2-5.19.84-9.74,3.45-14.65,5s-9.9,3.68-14.88,5.42a19.72,19.72,0,0,1-5.58,1.22c-6.31.24-12.67.52-18.82-1.27a14.73,14.73,0,0,1-5.69-3.11c-5.36-4.91-8.84-10.92-8.58-18.43.35-9.88.9-19.75,1.51-29.61q.71-11.4,1.77-22.79c1.28-13.58,3.31-4.39,3.59-6,.44-1.46,6-1.15,9.37-.49-1.73-.38,2.8,1.19,1.05,1.22-6.18.09-12.35.37-18.52.6a127.46,127.46,0,0,1-22.85-1.25c-9.05-1.32-18-3.38-27.28-2.72-1.21.08-2.41.31-4,.53-.63-2.58,1.27-1.05,1.82-.26,1.29,1.85,2.41,2.38,3.93,4C314.2,419.76,317,439.8,317,439.8c1.71,10.64-3.6-7.93.84,1.83,2.24,4.92,4.5,9.85,7,14.66a38.71,38.71,0,0,0,4.41,6.18,3.38,3.38,0,0,0,3.38,1.41c.83-.12,2.12.88,2.72,1.72,3.1,4.36,4.33,9.42,4.94,14.64q.48,4.2.82,8.4c.18,2.17-.81,3.57-2.83,4.49-4.8,2.2-10,2.56-15.06,3q-21.15,1.65-42.33,2.69c-7.75.38-15.53.27-23.18-1.39a18.81,18.81,0,0,1-3.29-1.13,5.61,5.61,0,0,1-3.6-5.08c-.22-2.59.53-4.79,2.82-6.19a11.81,11.81,0,0,1,3.38-1.47c10.25-2.42,19.2-7.62,28-13.12,1.51-.95,2.45-2.83,3.6-4.32.6-.78,1.08-1.65,1.58-2.44l-1.81-.76.09-.65h5.79a19.92,19.92,0,0,0-.73-2.11,3.19,3.19,0,0,1,.61-3.93,3,3,0,0,0,.72-2.35c-.78-2.95,2.82,3,1.25.46-4.61-7.38-16.17-12.71-21.49-19.57-3.83-4.29-3.1-3.24-5-6.4-2.87-5.22-6.06-10.28-9.13-15.4a54.41,54.41,0,0,1-6.79-17.11c-.49-2.41-1.38-2.81-3.47-1.52a3.44,3.44,0,0,1-4,.15c-1.76-1.19-3.4-2.55-5.2-3.67a4.1,4.1,0,0,0-2.68-.7c-3.54.82-6.27-.47-8.78-2.79a80.07,80.07,0,0,0-7.22-6.34c-5.35-3.9-9.41-9-13.69-13.92-3.87-4.45-7.62-9-11.38-13.57a2.6,2.6,0,0,0-2.78-1.14,6.88,6.88,0,0,1-3.5-.74,22.5,22.5,0,0,1-3.27-2.1c-.37-.11-.08,1.15-1.18,1.43m22.38-19.28c3.16,3.24,6,6.4,9.11,9.29s6.25,3.42,9.68,5.87,7.32,4.48,11.2,6.81c3.25-6.07,6.65-10.1,10.14-16.62a4.61,4.61,0,0,0-.75.16c-5.94,2.88-5.93,2.88-10.83-1.42a2.25,2.25,0,0,0-1.44-.48,31.88,31.88,0,0,0-3.17.44c-.65,1.05-.66,1-2.75,1.15a2.55,2.55,0,0,0-1.88,1.23c-1,2.85-3.06,3.74-5.41,1.88a95.63,95.63,0,0,1-7.73-6.76A5.87,5.87,0,0,0,208.82,331.63Zm69,33.71s.07-.11,0-.16c-.7-1.62-1.41-3.23-2.13-4.85-1.65-3.77-2.19-3.85-4.86-.74a.87.87,0,0,1-.34.14l-1.47-1a11.46,11.46,0,0,1-.66,3.17c-.48.9-1.68,1.42-2.08,2.33a3.86,3.86,0,0,0-.05,2.91c.22.48,1.61.77,2.35.61C271.64,367.07,274.63,366.19,277.79,365.34Z"/></clipPath></defs><title>ERROR-404-PADEL-PASS-CARD</title><text class="cls-2" transform="translate(232.92 102.93) scale(1.31 1)">404</text><path id="_Compound_Clipping_Path_2" data-name="&lt;Compound Clipping Path&gt;" class="cls-1" d="M186.44,350.91c.3,0-9.62.67-12.49,2.69-2.67.92-2.64,1-3.25-1.54-1.12-4.72-1.5-7.17-.25-11.94,1.17-4.49,1.88-9.08,3.87-13.39,1.28-2.77,3.47-4.47,5.67-6a4.4,4.4,0,0,0,2.13-4.41c-.15-3.77-.56-7.55-.46-11.32a158,158,0,0,1,1.08-16,17.25,17.25,0,0,1,6.19-10.88c11.7-10.1,21.9-11.31,34.6-4.78,5.43,2.78,10.76,5.75,16.27,8.36,2.23,1.07,4.8,1.42,7.64,2.22.1-2.36.19-4.24.28-6.46a28.72,28.72,0,0,1,4.6-1.75,2.93,2.93,0,0,1,2.56,1c1,1.93,2.41,1.76,4,1.22,3.3-1.15,6.57-2.38,9.86-3.56,8.8-3.16,17.77-5.61,27.17-6.17a4,4,0,0,0,1-.31H308c3.53.38,7.05,1,10.59,1.1,12.63.47,23.68,5.47,34.25,11.78a316.43,316.43,0,0,1,64.77,51.52q6.16,6.36,12.24,12.81c.43.47.4-1,.62-.28.28.87.35,2,.93,2.55,9.54,9.18,13.53,20.87,15.4,33.57,1.29,8.81-.86,16.88-5.12,24.51-3.61,6.47-9,9.79-12.49,16.34-.64-2-1-1.84-1-1.84-1,4-20.57,11.72-25.7,22.43-.71,1.48-1.54,2.89-2.62,4.89a29.58,29.58,0,0,0,5.45-1,76.26,76.26,0,0,0,10.09-4.55,48.56,48.56,0,0,1,20.1-6.14c9.36-.81,18.78-.83,28.15-1.51a73.79,73.79,0,0,0,14-2.2c8.19-2.22,16.24-5,24.34-7.52.5-.16,1-.38,1.48-.57-1-2.4-.07-4.33,2.49-4.74a61.45,61.45,0,0,1,21.3.06c3,.58,5.22,2.27,5.51,5.33.54,5.58.91,11.2.93,16.8,0,8-.65,15.94-.43,23.9.23,8.52-3.31,14.82-10,19.61-5.47,3.92-11.29,7.08-18.33,6.9-2.85-.07-5.38-.9-6.44-3.84s.14-5.62,2.34-7.58c1.32-1.18,3.2-1.75,4.82-2.6a6.8,6.8,0,0,0,2.05-1.2c1.16-1.33.89-2.09-.8-2.58a3.92,3.92,0,0,1-3-3,14.33,14.33,0,0,0-1.26-3c-.9-1.74-1.88-3.45-2.8-5.14-1.28,2.11.22,4.06.81,6.1l-.5.26q-1.59-2.57-3.19-5.13c-.18.19-.48.81-.81.83a5.51,5.51,0,0,1-2.66-.35c-.32-.16-.44-1.45-.16-2,.88-1.59,2-3.05,3.13-4.74a3.94,3.94,0,0,0-1.32,0c-1.63.71-2.74.51-3.74-1.22-.4-.68-1.9-1.09-2.86-1-5.34.27-10.77.21-15.82,2.24-8,3.18-15.81,6.58-23.74,9.82-6.33,2.6-12.68,5.17-19.1,7.57-1.2.45-2.73.06-3.82.39-1.06.69-2,1.82-3.17,2-5.19.84-9.74,3.45-14.65,5s-9.9,3.68-14.88,5.42a19.72,19.72,0,0,1-5.58,1.22c-6.31.24-12.67.52-18.82-1.27a14.73,14.73,0,0,1-5.69-3.11c-5.36-4.91-8.84-10.92-8.58-18.43.35-9.88.9-19.75,1.51-29.61q.71-11.4,1.77-22.79c1.28-13.58,3.31-4.39,3.59-6,.44-1.46,6-1.15,9.37-.49-1.73-.38,2.8,1.19,1.05,1.22-6.18.09-12.35.37-18.52.6a127.46,127.46,0,0,1-22.85-1.25c-9.05-1.32-18-3.38-27.28-2.72-1.21.08-2.41.31-4,.53-.63-2.58,1.27-1.05,1.82-.26,1.29,1.85,2.41,2.38,3.93,4C314.2,419.76,317,439.8,317,439.8c1.71,10.64-3.6-7.93.84,1.83,2.24,4.92,4.5,9.85,7,14.66a38.71,38.71,0,0,0,4.41,6.18,3.38,3.38,0,0,0,3.38,1.41c.83-.12,2.12.88,2.72,1.72,3.1,4.36,4.33,9.42,4.94,14.64q.48,4.2.82,8.4c.18,2.17-.81,3.57-2.83,4.49-4.8,2.2-10,2.56-15.06,3q-21.15,1.65-42.33,2.69c-7.75.38-15.53.27-23.18-1.39a18.81,18.81,0,0,1-3.29-1.13,5.61,5.61,0,0,1-3.6-5.08c-.22-2.59.53-4.79,2.82-6.19a11.81,11.81,0,0,1,3.38-1.47c10.25-2.42,19.2-7.62,28-13.12,1.51-.95,2.45-2.83,3.6-4.32.6-.78,1.08-1.65,1.58-2.44l-1.81-.76.09-.65h5.79a19.92,19.92,0,0,0-.73-2.11,3.19,3.19,0,0,1,.61-3.93,3,3,0,0,0,.72-2.35c-.78-2.95,2.82,3,1.25.46-4.61-7.38-16.17-12.71-21.49-19.57-3.83-4.29-3.1-3.24-5-6.4-2.87-5.22-6.06-10.28-9.13-15.4a54.41,54.41,0,0,1-6.79-17.11c-.49-2.41-1.38-2.81-3.47-1.52a3.44,3.44,0,0,1-4,.15c-1.76-1.19-3.4-2.55-5.2-3.67a4.1,4.1,0,0,0-2.68-.7c-3.54.82-6.27-.47-8.78-2.79a80.07,80.07,0,0,0-7.22-6.34c-5.35-3.9-9.41-9-13.69-13.92-3.87-4.45-7.62-9-11.38-13.57a2.6,2.6,0,0,0-2.78-1.14,6.88,6.88,0,0,1-3.5-.74,22.5,22.5,0,0,1-3.27-2.1c-.37-.11-.08,1.15-1.18,1.43m22.38-19.28c3.16,3.24,6,6.4,9.11,9.29s6.25,3.42,9.68,5.87,7.32,4.48,11.2,6.81c3.25-6.07,6.65-10.1,10.14-16.62a4.61,4.61,0,0,0-.75.16c-5.94,2.88-5.93,2.88-10.83-1.42a2.25,2.25,0,0,0-1.44-.48,31.88,31.88,0,0,0-3.17.44c-.65,1.05-.66,1-2.75,1.15a2.55,2.55,0,0,0-1.88,1.23c-1,2.85-3.06,3.74-5.41,1.88a95.63,95.63,0,0,1-7.73-6.76A5.87,5.87,0,0,0,208.82,331.63Zm69,33.71s.07-.11,0-.16c-.7-1.62-1.41-3.23-2.13-4.85-1.65-3.77-2.19-3.85-4.86-.74a.87.87,0,0,1-.34.14l-1.47-1a11.46,11.46,0,0,1-.66,3.17c-.48.9-1.68,1.42-2.08,2.33a3.86,3.86,0,0,0-.05,2.91c.22.48,1.61.77,2.35.61C271.64,367.07,274.63,366.19,277.79,365.34Z" transform="translate(-39 -258.49)"/><g class="cls-3"><text class="cls-4" transform="translate(232.92 102.93) scale(1.31 1)">404</text></g><path class="cls-1" d="M277.79,364.18c-3.16.85-6.15,1.73-9.19,2.41-.74.16-2.13-.13-2.35-.61a3.86,3.86,0,0,1,.05-2.91c.4-.9,1.6-1.43,2.08-2.33a11.46,11.46,0,0,0,.66-3.17l1.47,1a.87.87,0,0,0,.34-.14c2.67-3.11,3.21-3,4.86.74.72,1.62,1.43,3.23,2.13,4.86C277.86,364.07,277.81,364.15,277.79,364.18Z" transform="translate(-39 -258.49)"/><rect class="cls-1" x="179.07" y="330.7" width="3.93" height="17.67" rx="1.62" ry="1.62" transform="translate(-223.92 199.95) rotate(-79.93)"/><rect class="cls-1" x="171.74" y="369.6" width="3.93" height="17.67" rx="1.62" ry="1.62" transform="translate(-268.28 224.83) rotate(-79.93)"/><path class="cls-1" d="M183.13,362.19l.79-4.44a.49.49,0,0,0-.3-.55l-11.27-4.57a.51.51,0,0,0-.68.38l-.79,4.45a.49.49,0,0,0,.3.54l11.28,4.57A.49.49,0,0,0,183.13,362.19Z" transform="translate(-39 -258.49)"/><path class="cls-1" d="M168.9,368.61l-.62,3.49a.5.5,0,0,0,.4.58l11.72,2.08a.5.5,0,0,0,.57-.41l.18-1a.49.49,0,0,0-.3-.55l-11.27-4.56A.5.5,0,0,0,168.9,368.61Z" transform="translate(-39 -258.49)"/><path class="cls-1" d="M181.75,370l.79-4.44a.5.5,0,0,0-.3-.55L171,360.44a.49.49,0,0,0-.67.37l-.79,4.45a.48.48,0,0,0,.3.54l11.27,4.57A.5.5,0,0,0,181.75,370Z" transform="translate(-39 -258.49)"/><path class="cls-1" d="M173.06,345.21l-.79,4.45a.48.48,0,0,0,.3.54l11.27,4.57a.5.5,0,0,0,.68-.38l.79-4.44a.5.5,0,0,0-.3-.55l-11.28-4.57A.5.5,0,0,0,173.06,345.21Z" transform="translate(-39 -258.49)"/><path class="cls-1" d="M185.9,346.59l.62-1.06a.5.5,0,0,0-.4-.58l-11.71-2.08a.5.5,0,0,0-.58.4l-.18,1a.51.51,0,0,0,.3.55L185.23,347A.49.49,0,0,0,185.9,346.59Z" transform="translate(-39 -258.49)"/><path class="cls-1" d="M209,474.87c-10.19,36.47-45.65,32.61-54.1,31.19l-2.1-.39c11.1,1.44,42.5,2.46,52-31.51,10.58-37.89-23.94-60.68-24.42-87.7v0a1.49,1.49,0,0,1,1.71-1.58l.56.09a2.31,2.31,0,0,1,1.94,2.23C185.08,414.18,219.61,437,209,474.87Z" transform="translate(-39 -258.49)"/><path class="cls-1" d="M109,455.65c-3.29,36.87,30.41,44.91,38.61,46.36s42.61,5.52,52.22-30.23c10-37.13-23.67-59.78-24.34-86.32a2.29,2.29,0,0,0-1.89-2.2l-9.51-1.69A2.29,2.29,0,0,0,161.6,383C151.83,407.68,112.45,417.36,109,455.65Zm36,21.6a1.73,1.73,0,1,1,2-1.4A1.73,1.73,0,0,1,145.06,477.25Zm3.12-17.57a1.73,1.73,0,1,1,2-1.4A1.73,1.73,0,0,1,148.18,459.68Zm3.12-17.56a1.73,1.73,0,1,1,2-1.4A1.74,1.74,0,0,1,151.3,442.12Zm-1,45.12a1.73,1.73,0,1,1,2-1.4A1.73,1.73,0,0,1,150.28,487.24Zm3.11-17.57a1.73,1.73,0,1,1,2-1.4A1.73,1.73,0,0,1,153.39,469.67Zm3.12-17.57a1.73,1.73,0,1,1,2-1.4A1.73,1.73,0,0,1,156.51,452.1Zm3.12-17.57a1.73,1.73,0,1,1,2-1.4A1.73,1.73,0,0,1,159.63,434.53Zm-1,45.13a1.73,1.73,0,1,1,2-1.4A1.74,1.74,0,0,1,158.6,479.66Zm3.12-17.57a1.73,1.73,0,1,1,2-1.4A1.74,1.74,0,0,1,161.72,462.09Zm3.12-17.57a1.73,1.73,0,1,1,2-1.4A1.74,1.74,0,0,1,164.84,444.52Zm19.36,9a1.73,1.73,0,1,1-2,1.4A1.73,1.73,0,0,1,184.2,453.5Zm-3.12,17.57a1.73,1.73,0,1,1-2,1.4A1.73,1.73,0,0,1,181.08,471.07ZM179,443.52a1.73,1.73,0,1,1-2,1.4A1.73,1.73,0,0,1,179,443.52Zm-3.12,17.57a1.73,1.73,0,1,1-2,1.4A1.72,1.72,0,0,1,175.87,461.09Zm-3.12,17.57a1.73,1.73,0,1,1-2,1.4A1.72,1.72,0,0,1,172.75,478.66Zm1-45.13a1.73,1.73,0,1,1-2,1.4A1.74,1.74,0,0,1,173.78,433.53Zm-3.12,17.57a1.73,1.73,0,1,1-2,1.4A1.73,1.73,0,0,1,170.66,451.1Zm-3.12,17.57a1.73,1.73,0,0,1-.61,3.41,1.73,1.73,0,1,1,.61-3.41Zm-3.12,17.57a1.73,1.73,0,1,1-2,1.4A1.72,1.72,0,0,1,164.42,486.24Zm-9.66-82.39a121,121,0,0,0,10.1-11.66,2.54,2.54,0,0,1,4.44.79,120.74,120.74,0,0,0,5.47,14.43A2.55,2.55,0,0,1,172,411l-7.94-1.41h0l-7.95-1.41A2.54,2.54,0,0,1,154.76,403.85Zm-8.06,24.87a1.73,1.73,0,1,1-2,1.4A1.74,1.74,0,0,1,146.7,428.72Zm-3.12,17.57a1.73,1.73,0,1,1-2,1.4A1.73,1.73,0,0,1,143.58,446.29Zm-3.12,17.57a1.73,1.73,0,1,1-2,1.4A1.73,1.73,0,0,1,140.46,463.86Zm-3.12,17.57a1.73,1.73,0,1,1-2,1.4A1.73,1.73,0,0,1,137.34,481.43Zm-22.19-32.7a42.17,42.17,0,0,1,2-6.14,43.6,43.6,0,0,1,3-5.71,51.45,51.45,0,0,1,3.65-5.23c1.31-1.66,2.69-3.27,4.13-4.81a88.8,88.8,0,0,1,9.29-8.5,81.36,81.36,0,0,1,10.32-7.09,151.58,151.58,0,0,0-17.68,17.32c-5.26,6.23-9.89,13.09-11.79,20.89a51.09,51.09,0,0,0-1.67,12,36,36,0,0,0,1.86,11.83,33.93,33.93,0,0,0,2.46,5.51,36.32,36.32,0,0,0,3.42,5,45.12,45.12,0,0,0,9,8.39,39.24,39.24,0,0,1-10-7.51A33.53,33.53,0,0,1,116.18,474a35.89,35.89,0,0,1-2.53-12.58A45.73,45.73,0,0,1,114,455,53.22,53.22,0,0,1,115.15,448.73Zm19.49,8.55a1.73,1.73,0,1,1,2-1.4A1.73,1.73,0,0,1,134.64,457.28Zm-1.11,16.17a1.73,1.73,0,1,1-1.4-2A1.72,1.72,0,0,1,133.53,473.45Zm4.23-33.74a1.73,1.73,0,1,1,2-1.4A1.73,1.73,0,0,1,137.76,439.71Zm-8.33,7.58a1.73,1.73,0,1,1,2-1.4A1.73,1.73,0,0,1,129.43,447.29Zm-1.11,16.17a1.73,1.73,0,1,1-1.4-2A1.73,1.73,0,0,1,128.32,463.46Z" transform="translate(-39 -258.49)"/><path class="cls-5" d="M74.53,340.23q-2.25-10.12-7.24-14.32t-14.52-2.08q-9.52,2.12-12.26,8t-.5,16l13.53,60.82,29.07,88.59-.06-.24q1.61,4.4,4.47,5.5a9.51,9.51,0,0,0,5.61.5,9.38,9.38,0,0,0,4.82-2.76q2.08-2.15,1.7-6.68L88.05,401Z" transform="translate(-39 -258.49)"/><path class="cls-5" d="M92.7,534.26a15.54,15.54,0,0,0-4.59-9.51,15.45,15.45,0,0,0,2.19,19.79,15.49,15.49,0,0,0,2.4-10.28" transform="translate(-39 -258.49)"/><path class="cls-5" d="M107.13,532.66A17.55,17.55,0,0,1,110,520.81a15.44,15.44,0,0,0-20.61,2.29,17.88,17.88,0,0,1,2.53,22.77,15.44,15.44,0,0,0,20.6-2.28,17.54,17.54,0,0,1-5.38-10.93" transform="translate(-39 -258.49)"/><path class="cls-5" d="M109.2,532.43a15.46,15.46,0,0,1,2.4-10.28,15.43,15.43,0,0,1,2.19,19.78,15.46,15.46,0,0,1-4.59-9.5" transform="translate(-39 -258.49)"/></svg>